<mxfile modified="2023-05-08T16:51:09.684Z" host="www.draw.io" agent="Mozilla/5.0 (Windows NT 10.0; Win64; x64) AppleWebKit/537.36 (KHTML, like Gecko) Chrome/113.0.0.0 Safari/537.36" etag="1uD-qc-xZzF8NlfvXtoH" version="21.2.9" type="device">
  <diagram id="Ht1M8jgEwFfnCIfOTk4-" name="Page-1">
    <mxGraphModel dx="2049" dy="452" grid="1" gridSize="10" guides="1" tooltips="1" connect="1" arrows="1" fold="1" page="1" pageScale="1" pageWidth="1169" pageHeight="827" math="0" shadow="0">
      <root>
        <mxCell id="0" />
        <mxCell id="1" parent="0" />
        <mxCell id="ajbt4bZKuE0fcBvwwNia-18" value="&lt;b&gt;Service Registry&lt;/b&gt;" style="rounded=0;whiteSpace=wrap;html=1;verticalAlign=top;" vertex="1" parent="1">
          <mxGeometry x="170" y="210" width="460" height="410" as="geometry" />
        </mxCell>
        <mxCell id="ajbt4bZKuE0fcBvwwNia-8" value="" style="edgeStyle=orthogonalEdgeStyle;rounded=0;orthogonalLoop=1;jettySize=auto;html=1;" edge="1" parent="1" source="ajbt4bZKuE0fcBvwwNia-6">
          <mxGeometry relative="1" as="geometry">
            <mxPoint x="30" y="439.4" as="targetPoint" />
          </mxGeometry>
        </mxCell>
        <mxCell id="ajbt4bZKuE0fcBvwwNia-6" value="clients" style="rounded=1;whiteSpace=wrap;html=1;verticalAlign=top;" vertex="1" parent="1">
          <mxGeometry x="-210" y="388.75" width="170" height="101.25" as="geometry" />
        </mxCell>
        <mxCell id="ajbt4bZKuE0fcBvwwNia-3" value="" style="fontColor=#0066CC;verticalAlign=top;verticalLabelPosition=bottom;labelPosition=center;align=center;html=1;outlineConnect=0;fillColor=#CCCCCC;strokeColor=#6881B3;gradientColor=none;gradientDirection=north;strokeWidth=2;shape=mxgraph.networks.laptop;" vertex="1" parent="1">
          <mxGeometry x="-190" y="430" width="60" height="40" as="geometry" />
        </mxCell>
        <mxCell id="ajbt4bZKuE0fcBvwwNia-4" value="" style="fontColor=#0066CC;verticalAlign=top;verticalLabelPosition=bottom;labelPosition=center;align=center;html=1;outlineConnect=0;fillColor=#CCCCCC;strokeColor=#6881B3;gradientColor=none;gradientDirection=north;strokeWidth=2;shape=mxgraph.networks.mobile;shadow=1;" vertex="1" parent="1">
          <mxGeometry x="-100" y="427.5" width="20" height="42.5" as="geometry" />
        </mxCell>
        <mxCell id="ajbt4bZKuE0fcBvwwNia-22" value="" style="edgeStyle=orthogonalEdgeStyle;rounded=0;orthogonalLoop=1;jettySize=auto;html=1;entryX=0;entryY=0.489;entryDx=0;entryDy=0;entryPerimeter=0;" edge="1" parent="1" source="ajbt4bZKuE0fcBvwwNia-9" target="ajbt4bZKuE0fcBvwwNia-18">
          <mxGeometry relative="1" as="geometry">
            <Array as="points" />
          </mxGeometry>
        </mxCell>
        <mxCell id="ajbt4bZKuE0fcBvwwNia-9" value="API Gateway" style="editableCssRules=.*;html=1;shape=image;verticalLabelPosition=bottom;labelBackgroundColor=#ffffff;verticalAlign=top;aspect=fixed;imageAspect=0;image=data:image/svg+xml,PHN2ZyB4bWxucz0iaHR0cDovL3d3dy53My5vcmcvMjAwMC9zdmciIHhtbG5zOnY9Imh0dHBzOi8vdmVjdGEuaW8vbmFubyIgd2lkdGg9IjIwIiBoZWlnaHQ9IjE0LjE0MzAxOTY3NjIwODQ5NiIgdmlld0JveD0iMCAwLjAwMDQ4OTk2NjI0NTM2ODEyMzEgMjAgMTQuMTQzMDE5Njc2MjA4NDk2Ij4mI3hhOwk8c3R5bGUgdHlwZT0idGV4dC9jc3MiPiYjeGE7CS5zdDB7ZmlsbDojNDI4NWY0O30mI3hhOwkuc3Qxe2ZpbGw6IzY2OWRmNjt9JiN4YTsJPC9zdHlsZT4mI3hhOwk8cGF0aCBjbGFzcz0ic3QwIiBkPSJNMTAgMS40NzJhNS41OSA1LjU5IDAgMCAxIDQgMS42bDEtMWE3LjA3IDcuMDcgMCAwIDAtMTAgMGgwbDEgMWE1LjU5IDUuNTkgMCAwIDEgNC0xLjZ6bTAgMTEuMmE1LjU5IDUuNTkgMCAwIDEtNC0xLjZsLTEgMWE3LjA3IDcuMDcgMCAwIDAgMTAgMGgwbC0xLTFhNS41OSA1LjU5IDAgMCAxLTQgMS42eiIvPiYjeGE7CTxwYXRoIGNsYXNzPSJzdDEiIGQ9Ik0xMCAxMC4xNDJhMy4wNiAzLjA2IDAgMCAxLTMtMi4zNEgzLjExdjIuMzhMMCA3LjA3MmwzLjExLTMuMXYyLjM4SDdhMy4wNiAzLjA2IDAgMCAxIDMtMi4zNGgwYTMuMDYgMy4wNiAwIDAgMSAzIDIuMzRoMy45MXYtMi4zOUwyMCA3LjA3MmwtMy4xMSAzLjEydi0yLjM5SDEzYTMuMDYgMy4wNiAwIDAgMS0zIDIuMzR6bTAtNC42OGExLjYxIDEuNjEgMCAxIDAgMS42MSAxLjYxaDBBMS42MSAxLjYxIDAgMCAwIDEwIDUuNDYyeiIvPiYjeGE7PC9zdmc+;fontStyle=1" vertex="1" parent="1">
          <mxGeometry x="30" y="407.06" width="92.31" height="64.62" as="geometry" />
        </mxCell>
        <mxCell id="ajbt4bZKuE0fcBvwwNia-12" value="" style="edgeStyle=orthogonalEdgeStyle;rounded=0;orthogonalLoop=1;jettySize=auto;html=1;" edge="1" parent="1" source="ajbt4bZKuE0fcBvwwNia-10" target="ajbt4bZKuE0fcBvwwNia-9">
          <mxGeometry relative="1" as="geometry" />
        </mxCell>
        <mxCell id="ajbt4bZKuE0fcBvwwNia-21" value="" style="edgeStyle=orthogonalEdgeStyle;rounded=0;orthogonalLoop=1;jettySize=auto;html=1;" edge="1" parent="1" source="ajbt4bZKuE0fcBvwwNia-10" target="ajbt4bZKuE0fcBvwwNia-9">
          <mxGeometry relative="1" as="geometry" />
        </mxCell>
        <mxCell id="ajbt4bZKuE0fcBvwwNia-10" value="&lt;font color=&quot;#000000&quot;&gt;Okta Auth&lt;/font&gt;" style="sketch=0;html=1;verticalAlign=top;labelPosition=center;verticalLabelPosition=bottom;align=center;spacingTop=-6;fontSize=11;fontStyle=1;fontColor=#999999;shape=image;aspect=fixed;imageAspect=0;image=data:image/svg+xml,PHN2ZyB4bWxucz0iaHR0cDovL3d3dy53My5vcmcvMjAwMC9zdmciIHhtbG5zOnY9Imh0dHBzOi8vdmVjdGEuaW8vbmFubyIgd2lkdGg9IjIwIiBoZWlnaHQ9IjE3LjI3OTk5ODc3OTI5Njg3NSIgdmlld0JveD0iMCAwIDIwIDE3LjI3OTk5ODc3OTI5Njg3NSI+JiN4YTsJPHN0eWxlIHR5cGU9InRleHQvY3NzIj4mI3hhOwkuc3Qwe2ZpbGw6IzQyODVmNDt9JiN4YTsJLnN0MXtmaWxsOiM2NjlkZjY7fSYjeGE7CTwvc3R5bGU+JiN4YTsJPGNpcmNsZSBjbGFzcz0ic3QwIiBjeD0iOS40NCIgY3k9IjguMTQiIHI9IjIuOTciLz4mI3hhOwk8ZyBjbGFzcz0ic3QxIj4mI3hhOwkJPGNpcmNsZSBjeD0iMi4wMiIgY3k9IjcuNDMiIHI9IjIuMDIiLz4mI3hhOwkJPGNpcmNsZSBjeD0iMTIuNTIiIGN5PSIxNS4yNiIgcj0iMi4wMiIvPiYjeGE7CQk8cGF0aCBkPSJNMTcuNTcuODRBMi40MyAyLjQzIDAgMSAwIDIwIDMuMjcgMi40MyAyLjQzIDAgMCAwIDE3LjU3Ljg0em0wIDMuOGExLjM3IDEuMzcgMCAxIDEgMS4zNi0xLjM3aDBhMS4zNyAxLjM3IDAgMCAxLTEuMzYgMS4zN3oiLz4mI3hhOwkJPHBhdGggZD0iTTE2LjIgMy4zMkE4LjI5IDguMjkgMCAwIDAgMTEuMTQgMGwtLjI4IDEuMzRhNi45NSA2Ljk1IDAgMSAxLTguMjIgNS4zOCA2Ljg4IDYuODggMCAwIDEgMS44Ny0zLjQ3bC0xLTFhOC4zMSA4LjMxIDAgMSAwIDEzLjM4IDIuMiAxLjM2IDEuMzYgMCAwIDEtLjY5LTEuMTN6Ii8+JiN4YTsJPC9nPiYjeGE7PC9zdmc+;" vertex="1" parent="1">
          <mxGeometry x="50" y="275.59" width="51.82" height="44.41" as="geometry" />
        </mxCell>
        <mxCell id="ajbt4bZKuE0fcBvwwNia-25" value="" style="edgeStyle=orthogonalEdgeStyle;rounded=0;orthogonalLoop=1;jettySize=auto;html=1;entryX=0;entryY=0.5;entryDx=0;entryDy=0;" edge="1" parent="1" source="ajbt4bZKuE0fcBvwwNia-13" target="ajbt4bZKuE0fcBvwwNia-15">
          <mxGeometry relative="1" as="geometry">
            <mxPoint x="270" y="300" as="targetPoint" />
          </mxGeometry>
        </mxCell>
        <mxCell id="ajbt4bZKuE0fcBvwwNia-13" value="User Service" style="rounded=0;whiteSpace=wrap;html=1;" vertex="1" parent="1">
          <mxGeometry x="210" y="380" width="120" height="60" as="geometry" />
        </mxCell>
        <mxCell id="ajbt4bZKuE0fcBvwwNia-14" value="Config Server" style="rounded=0;whiteSpace=wrap;html=1;" vertex="1" parent="1">
          <mxGeometry x="220" y="537.5" width="120" height="60" as="geometry" />
        </mxCell>
        <mxCell id="ajbt4bZKuE0fcBvwwNia-29" value="" style="edgeStyle=orthogonalEdgeStyle;rounded=0;orthogonalLoop=1;jettySize=auto;html=1;entryX=0.5;entryY=0;entryDx=0;entryDy=0;" edge="1" parent="1" source="ajbt4bZKuE0fcBvwwNia-15" target="ajbt4bZKuE0fcBvwwNia-17">
          <mxGeometry relative="1" as="geometry">
            <mxPoint x="430" y="390" as="targetPoint" />
          </mxGeometry>
        </mxCell>
        <mxCell id="ajbt4bZKuE0fcBvwwNia-33" value="" style="edgeStyle=orthogonalEdgeStyle;rounded=0;orthogonalLoop=1;jettySize=auto;html=1;" edge="1" parent="1" source="ajbt4bZKuE0fcBvwwNia-15" target="ajbt4bZKuE0fcBvwwNia-16">
          <mxGeometry relative="1" as="geometry">
            <mxPoint x="590" y="280" as="targetPoint" />
            <Array as="points">
              <mxPoint x="510" y="280" />
              <mxPoint x="510" y="327" />
              <mxPoint x="550" y="327" />
            </Array>
          </mxGeometry>
        </mxCell>
        <mxCell id="ajbt4bZKuE0fcBvwwNia-39" value="" style="edgeStyle=orthogonalEdgeStyle;rounded=0;orthogonalLoop=1;jettySize=auto;html=1;entryX=0;entryY=0.5;entryDx=0;entryDy=0;" edge="1" parent="1" source="ajbt4bZKuE0fcBvwwNia-15" target="ajbt4bZKuE0fcBvwwNia-35">
          <mxGeometry relative="1" as="geometry">
            <mxPoint x="430" y="170" as="targetPoint" />
          </mxGeometry>
        </mxCell>
        <mxCell id="ajbt4bZKuE0fcBvwwNia-15" value="Order Service" style="rounded=0;whiteSpace=wrap;html=1;" vertex="1" parent="1">
          <mxGeometry x="370" y="250" width="120" height="60" as="geometry" />
        </mxCell>
        <mxCell id="ajbt4bZKuE0fcBvwwNia-40" value="" style="edgeStyle=orthogonalEdgeStyle;rounded=0;orthogonalLoop=1;jettySize=auto;html=1;" edge="1" parent="1" source="ajbt4bZKuE0fcBvwwNia-16" target="ajbt4bZKuE0fcBvwwNia-36">
          <mxGeometry relative="1" as="geometry" />
        </mxCell>
        <mxCell id="ajbt4bZKuE0fcBvwwNia-16" value="Product Service" style="rounded=0;whiteSpace=wrap;html=1;" vertex="1" parent="1">
          <mxGeometry x="490" y="347.06" width="120" height="60" as="geometry" />
        </mxCell>
        <mxCell id="ajbt4bZKuE0fcBvwwNia-42" value="" style="edgeStyle=orthogonalEdgeStyle;rounded=0;orthogonalLoop=1;jettySize=auto;html=1;entryX=0;entryY=0.5;entryDx=0;entryDy=0;" edge="1" parent="1" source="ajbt4bZKuE0fcBvwwNia-17" target="ajbt4bZKuE0fcBvwwNia-37">
          <mxGeometry relative="1" as="geometry">
            <mxPoint x="590" y="480.0000000000001" as="targetPoint" />
          </mxGeometry>
        </mxCell>
        <mxCell id="ajbt4bZKuE0fcBvwwNia-17" value="Payment Service" style="rounded=0;whiteSpace=wrap;html=1;" vertex="1" parent="1">
          <mxGeometry x="370" y="450.0000000000001" width="120" height="60" as="geometry" />
        </mxCell>
        <mxCell id="ajbt4bZKuE0fcBvwwNia-27" value="" style="edgeStyle=orthogonalEdgeStyle;rounded=0;orthogonalLoop=1;jettySize=auto;html=1;" edge="1" parent="1" source="ajbt4bZKuE0fcBvwwNia-26" target="ajbt4bZKuE0fcBvwwNia-14">
          <mxGeometry relative="1" as="geometry" />
        </mxCell>
        <mxCell id="ajbt4bZKuE0fcBvwwNia-26" value="" style="dashed=0;outlineConnect=0;html=1;align=center;labelPosition=center;verticalLabelPosition=bottom;verticalAlign=top;shape=mxgraph.weblogos.github" vertex="1" parent="1">
          <mxGeometry x="27" y="530" width="75" height="75" as="geometry" />
        </mxCell>
        <mxCell id="ajbt4bZKuE0fcBvwwNia-35" value="&lt;b&gt;Order DB&lt;/b&gt;" style="shape=datastore;whiteSpace=wrap;html=1;labelBackgroundColor=#3333FF;fillColor=#3333FF;verticalAlign=bottom;" vertex="1" parent="1">
          <mxGeometry x="710" y="230" width="80" height="40" as="geometry" />
        </mxCell>
        <mxCell id="ajbt4bZKuE0fcBvwwNia-36" value="&lt;b&gt;Product DB&lt;/b&gt;" style="shape=datastore;whiteSpace=wrap;html=1;labelBackgroundColor=#3333FF;fillColor=#3333FF;verticalAlign=bottom;" vertex="1" parent="1">
          <mxGeometry x="710" y="355.59" width="80" height="42.94" as="geometry" />
        </mxCell>
        <mxCell id="ajbt4bZKuE0fcBvwwNia-37" value="&lt;b&gt;Payment DB&lt;/b&gt;" style="shape=datastore;whiteSpace=wrap;html=1;labelBackgroundColor=#3333FF;fillColor=#3333FF;verticalAlign=bottom;" vertex="1" parent="1">
          <mxGeometry x="710" y="460" width="80" height="40" as="geometry" />
        </mxCell>
      </root>
    </mxGraphModel>
  </diagram>
</mxfile>
